<svg version="1" xmlns="http://www.w3.org/2000/svg" width="506.667" height="506.667" viewBox="0 0 380.000000 380.000000"><path d="M105.5 58.7c-2.2.2-4.7.6-5.5 1-1.3.5-4.5 1-9.7 1.5-.7.1-1.3.5-1.3 1 0 .4-.3.7-.7.6-2-.5-15 4.8-20.2 8.3-7.3 4.8-18.8 16.9-19.7 20.6-.4 1.6-1.2 3.1-1.8 3.5-1.2.8-1.4 9.9-.4 28 .7 13.3 3.6 24.6 9.3 35.7 3.3 6.7 17.1 30.2 19.1 32.6 1.5 1.9 1.5 7.3 0 15.5-.2 1.4-.7 4.6-1.1 7.1-.9 6.9-7 25.9-10.3 32.6-1.7 3.2-4 8-5.2 10.8-1.2 2.7-4.7 9.9-7.8 16-10.2 20.2-10.4 20.6-8.2 22 .6.4.8 1.1.4 1.6-.3.5-.1.8.4.7.5-.2 3.6 2.2 6.8 5.3 3.3 3.1 7.3 6.3 8.9 7.1 3.4 1.7 20.5 6.8 22.9 6.8.9 0 1.6.5 1.6 1.1 0 .5.5.7 1 .4.6-.4 1.6-.2 2.3.3 1.9 1.6 25.4 7.2 32.2 7.7 1.7.1 3 .3 3 .5 0 .1 1.6.3 3.5.5 5.7.6 10.2 1.3 15.3 2.5 7.1 1.7 77.5 1 78.6-.8.4-.7 1.2-1.2 1.7-1 3.4 1 11.8-5.3 12.6-9.5.4-1.9-1.4-21.4-2.8-31.4-.3-1.8-1.9-4.6-3.7-6.5-2.9-2.8-3.3-3.9-3.1-7.8.1-2.5.3-4.7.3-5 .1-.3 5.6-.2 12.4.2 19.4 1.2 33.3.2 53.2-3.9 13.1-2.7 24.7-11.4 37.3-28 3.4-4.5 6.2-8.6 6.2-9.1s.7-1.6 1.7-2.3c2.3-2 8.4-15.6 12.4-27.9 3.2-9.9 3.4-11.3 3.2-23.2-.1-9-.6-14.3-1.8-18-4.7-14.2-12.1-22.9-24.5-28.5-7-3.2-7.7-3.3-12.4-2.3-5.5 1.2-50.3 1.5-56.3.4-2.1-.4-4.4-1.1-5-1.7-.9-.6-1.3-.6-1.3.3 0 .8-.8.4-1.8-.8-1.5-1.7-2.1-1.9-3.1-.9-.7.7-1.1.7-.9.2.2-.6-.1-1.2-.6-1.5-.4-.3-4.6-4.2-9.2-8.8-4.6-4.5-8.8-8.2-9.3-8.2s-2.7-1.7-4.8-3.8c-2.1-2.1-5.3-4.7-7.1-5.7-1.7-1.1-3.2-2.3-3.2-2.8 0-.4-.4-.5-1-.2-.5.3-1 .2-1-.4 0-.5-2.2-2.2-5-3.7-2.7-1.5-5-3-5-3.3 0-.4-.8-.7-1.7-.8-4.4-.3-6.3-.8-6.3-1.6 0-.4-.4-.5-1-.2-.5.3-1 .1-1-.5s-.4-.9-.9-.5c-.5.3-1.2.1-1.5-.3-1.1-1.8-12.6-3.5-19.8-3l-7.2.6-8.1-6.5c-4.4-3.5-9.4-7.1-11.2-8-1.8-.8-3.3-1.9-3.3-2.3 0-.5-.8-.7-1.7-.5-1 .1-2.4-.2-3.2-.8-1.4-1.2-17.4-1.8-24.6-1z"/></svg>