<?xml version="1.0" ?><!DOCTYPE svg  PUBLIC '-//W3C//DTD SVG 1.1//EN'  'http://www.w3.org/Graphics/SVG/1.1/DTD/svg11.dtd'><svg enable-background="new 0 0 512 512" height="512px" id="Слой_1" version="1.1" viewBox="0 0 512 512" width="512px" xml:space="preserve" xmlns="http://www.w3.org/2000/svg" xmlns:xlink="http://www.w3.org/1999/xlink"><g id="flickr"><g><path d="M511.994,256.008c0,141.379-114.607,255.98-255.996,255.98c-141.385,0-255.992-114.602-255.992-255.98    c0-141.389,114.607-255.996,255.992-255.996C397.387,0.012,511.994,114.619,511.994,256.008z" fill="#E5E8EC"/><path d="M223.421,216.141l-98.679,98.678l190.256,190.264c88.936-20.984,159.919-88.297,186.098-175.107    L387.254,216.141l-81.912,81.92L223.421,216.141z" opacity="0.1"/></g><g><path d="M174.086,195.695c-38.547,0-69.777,31.258-69.777,69.795c0,38.531,31.23,69.773,69.777,69.766    c38.53,0,69.771-31.234,69.771-69.766C243.857,226.953,212.616,195.695,174.086,195.695z" fill="#0076D1"/><path d="M337.919,195.695c-38.538,0-69.772,31.258-69.772,69.795c0,38.531,31.234,69.781,69.772,69.773    c38.538,0,69.78-31.234,69.78-69.773C407.699,226.953,376.457,195.695,337.919,195.695z" fill="#FF0087"/></g></g></svg>